<svg xmlns="http://www.w3.org/2000/svg" width="13.478" height="18.631" viewBox="0 0 13.478 18.631">
  <g id="Group_132" data-name="Group 132" transform="translate(-1279.45 -73.023)">
    <path id="Path_134" data-name="Path 134" d="M1279.533,80.221a.968.968,0,0,0,.94.614l11.331-.006a1.19,1.19,0,0,0,.845-1.952l-5.682-5.682c-.2-.2-.445-.171-.726-.171s-.526.254-.723.453l-5.67,5.669A.966.966,0,0,0,1279.533,80.221Z" fill="#404041"/>
    <path id="Path_135" data-name="Path 135" d="M1292.846,84.513a1.062,1.062,0,0,0-.981-.656l-11.349-.014a1.026,1.026,0,0,0-.985.655,1.064,1.064,0,0,0,.23,1.16l5.681,5.684a1.065,1.065,0,0,0,1.506,0l5.668-5.669A1.064,1.064,0,0,0,1292.846,84.513Z" fill="#404041"/>
  </g>
</svg>
