<svg xmlns="http://www.w3.org/2000/svg" width="12.605" height="13.535" viewBox="0 0 12.605 13.535">
  <g id="Group_26" data-name="Group 26" transform="translate(-683.421 -532.503)">
    <path id="Path_33" data-name="Path 33" d="M685.955,533.943c0-.306,0-.6,0-.9.008-.341.2-.541.487-.54s.473.207.482.544c.006.3,0,.589,0,.911h5.357c0-.283,0-.575,0-.867.006-.364.185-.583.475-.589s.5.219.508.6c.007.282,0,.564,0,.886H694.9a.984.984,0,0,1,1.126,1.132v9.823a.96.96,0,0,1-1.086,1.094q-5.219,0-10.439,0a.958.958,0,0,1-1.08-1.069v-9.891a.978.978,0,0,1,1.1-1.089c.443,0,.889,0,1.334-.009A.4.4,0,0,0,685.955,533.943Zm-1.77,3.649c0,.116-.013.2-.013.3v6.637c0,.6.226.818.831.818q4.773,0,9.546,0c.558,0,.728-.169.728-.736,0-2.222,0-4.45,0-6.672,0-.11-.01-.22-.017-.342Zm1.757-2.9a.719.719,0,0,0-.021,1.087.777.777,0,0,0,1.078-.025.712.712,0,0,0-.048-1.053c-.086.391.171.982-.54,1C686.07,535.712,685.984,535.514,685.942,534.7Zm7.354-.014c-.078.41.132.971-.475,1.01-.72.045-.463-.611-.567-1.019a.751.751,0,0,0,0,1.115.769.769,0,0,0,1.05-.013A.736.736,0,0,0,693.3,534.681Z" fill="#585959" fill-rule="evenodd"/>
    <path id="Path_34" data-name="Path 34" d="M686.354,543.011c.722,0,.722,0,.722.729,0,.77,0,.77-.757.77-.724,0-.722,0-.724-.738C685.593,542.946,685.561,543.008,686.354,543.011Z" fill="#585959" fill-rule="evenodd"/>
    <path id="Path_35" data-name="Path 35" d="M689.338,543.769c0,.741,0,.741-.754.741-.728,0-.728,0-.728-.732,0-.828-.044-.768.751-.767C689.338,543.013,689.338,543.011,689.338,543.769Z" fill="#585959" fill-rule="evenodd"/>
    <path id="Path_36" data-name="Path 36" d="M690.114,543.746c0-.735,0-.735.742-.735s.741,0,.741.737c0,.762,0,.762-.762.762C690.114,544.51,690.114,544.51,690.114,543.746Z" fill="#585959" fill-rule="evenodd"/>
    <path id="Path_37" data-name="Path 37" d="M685.595,539.151c0-.729,0-.726.722-.729.82,0,.759-.05.759.759,0,.736,0,.736-.753.736C685.595,539.916,685.595,539.916,685.595,539.151Z" fill="#585959" fill-rule="evenodd"/>
    <path id="Path_38" data-name="Path 38" d="M688.589,538.422c.749,0,.749,0,.749.735,0,.76,0,.76-.77.76h-.239c-.429,0-.471-.043-.473-.469,0-.193,0-.388,0-.581.005-.407.038-.44.458-.444Z" fill="#585959" fill-rule="evenodd"/>
    <path id="Path_39" data-name="Path 39" d="M691.6,539.17c0,.747,0,.747-.749.747s-.732,0-.734-.722c0-.845-.046-.773.78-.773C691.6,538.422,691.6,538.422,691.6,539.17Z" fill="#585959" fill-rule="evenodd"/>
    <path id="Path_40" data-name="Path 40" d="M692.373,539.151c0-.729,0-.729.722-.729.789,0,.765-.072.761.759,0,.735,0,.735-.726.736C692.373,539.917,692.373,539.917,692.373,539.151Z" fill="#585959" fill-rule="evenodd"/>
    <path id="Path_41" data-name="Path 41" d="M686.35,540.681c.726,0,.726,0,.726.721,0,.777.094.78-.786.773-.7-.006-.7,0-.7-.7v-.034C685.593,540.622,685.549,540.679,686.35,540.681Z" fill="#585959" fill-rule="evenodd"/>
    <path id="Path_42" data-name="Path 42" d="M690.114,541.384c0-.7,0-.7.711-.7.812,0,.774-.078.774.781,0,.711,0,.707-.713.713C690,542.183,690.12,542.157,690.114,541.384Z" fill="#585959" fill-rule="evenodd"/>
    <path id="Path_43" data-name="Path 43" d="M693.856,541.412c0,.761,0,.761-.768.761h-.033c-.682,0-.682,0-.682-.672,0-.892-.077-.821.8-.82C693.856,540.681,693.856,540.681,693.856,541.412Z" fill="#585959" fill-rule="evenodd"/>
    <path id="Path_44" data-name="Path 44" d="M689.338,541.421c0,.779.054.734-.743.734s-.739.042-.739-.734c0-.82-.047-.747.758-.748C689.4,540.671,689.338,540.625,689.338,541.421Z" fill="#585959" fill-rule="evenodd"/>
  </g>
</svg>
