<svg xmlns="http://www.w3.org/2000/svg" width="64" height="43.752" viewBox="0 0 64 43.752">
  <g id="Group_231" data-name="Group 231" transform="translate(-50.94 -724.249)">
    <text id="CATEGORIES" transform="translate(82.94 764)" font-size="10" font-family="Poppins-SemiBold, Poppins" font-weight="600"><tspan x="-31.03" y="0">CATEGORIES</tspan></text>
    <path id="Path_238" data-name="Path 238" d="M87.4,749.859c-2.5,0-4.992-.018-7.487.01-.882.011-1.275-.293-1.239-1.219.052-1.356.032-2.716.007-4.074-.014-.705.306-1.013.983-1.013q7.764,0,15.526,0c.762,0,1.025.374,1.012,1.1-.028,1.358-.038,2.717,0,4.074.026.887-.391,1.143-1.206,1.135C92.469,749.843,89.937,749.859,87.4,749.859Z" fill-rule="evenodd"/>
    <path id="Path_239" data-name="Path 239" d="M87.428,724.262c2.537,0,5.075.024,7.612-.013.856-.013,1.2.291,1.169,1.154-.042,1.323-.034,2.649,0,3.971.019.779-.244,1.135-1.079,1.13q-7.669-.033-15.337,0c-.8,0-1.134-.279-1.11-1.1q.059-2.039,0-4.082c-.026-.841.356-1.08,1.133-1.071C82.352,724.279,84.89,724.262,87.428,724.262Z" fill-rule="evenodd"/>
    <path id="Path_240" data-name="Path 240" d="M87.428,740.179c-2.5,0-5-.023-7.5.012-.883.012-1.285-.265-1.247-1.2.053-1.323.037-2.648,0-3.971-.018-.729.222-1.1,1-1.1q7.777.016,15.556,0c.712,0,.976.334.965,1.021-.022,1.361-.035,2.722,0,4.082.025.854-.308,1.177-1.167,1.166C92.5,740.157,89.965,740.179,87.428,740.179Z" fill-rule="evenodd"/>
    <path id="Path_241" data-name="Path 241" d="M72.862,743.563a3.148,3.148,0,1,1-3.193,3.125A3.164,3.164,0,0,1,72.862,743.563Z" fill-rule="evenodd"/>
    <path id="Path_242" data-name="Path 242" d="M75.949,737.074a3.14,3.14,0,1,1-3.133-3.152A3.144,3.144,0,0,1,75.949,737.074Z" fill-rule="evenodd"/>
    <path id="Path_243" data-name="Path 243" d="M72.8,724.262a3.116,3.116,0,0,1,.085,6.231,3.116,3.116,0,1,1-.085-6.231Z" fill-rule="evenodd"/>
  </g>
</svg>
