<svg xmlns="http://www.w3.org/2000/svg" width="25" height="25" viewBox="0 0 25 25">
  <g id="Group_21" data-name="Group 21" transform="translate(-392 -155)">
    <path id="Rectangle_10" data-name="Rectangle 10" d="M3.31,0H21.69A3.31,3.31,0,0,1,25,3.31V21.69A3.31,3.31,0,0,1,21.69,25H3.311A3.311,3.311,0,0,1,0,21.689V3.31A3.31,3.31,0,0,1,3.31,0Z" transform="translate(392 155)" fill="#999"/>
    <path id="Path_1" data-name="Path 1" d="M410.773,171.633l-4.347-4.789,3.952-4.55a.993.993,0,0,0,.075-.766c-.079-.174-.253-.528-.446-.528H407.72c-.143,0-.28.3-.372.413l-2.536,3.091-2.246-3.13c-.092-.122-.236-.374-.389-.374h-2.331c-.188,0-.36.35-.442.519a.721.721,0,0,0,.059.638l3.639,4.628-3.982,4.835a1.12,1.12,0,0,0-.066.81c.081.171.253.57.443.57h2.418c.151,0,.293-.343.386-.462l2.478-3.308,2.79,3.4c.094.106.228.373.369.373h2.473c.193,0,.369-.389.447-.565A1.06,1.06,0,0,0,410.773,171.633Z" fill="#fff"/>
  </g>
</svg>
