<svg xmlns="http://www.w3.org/2000/svg" width="64" height="42.978" viewBox="0 0 64 42.978">
  <g id="Group_222" data-name="Group 222" transform="translate(-50.94 -244.604)">
    <text id="DASHBOARD" transform="translate(82.94 283.582)" font-size="10" font-family="Poppins-SemiBold, Poppins" font-weight="600"><tspan x="-31.305" y="0">DASHBOARD</tspan></text>
    <path id="Path_231" data-name="Path 231" d="M93.35,258.673l-9.958-8.8a.683.683,0,0,0-.9,0l-9.958,8.8a.337.337,0,0,0-.115.255v10.346a.341.341,0,0,0,.341.342h7a.342.342,0,0,0,.341-.342v-6.607a1.365,1.365,0,0,1,1.364-1.365h2.957a1.365,1.365,0,0,1,1.365,1.365v6.607a.341.341,0,0,0,.341.342h7a.341.341,0,0,0,.341-.342V258.928A.337.337,0,0,0,93.35,258.673Z"/>
    <path id="Path_232" data-name="Path 232" d="M96.093,255.26l-11.351-9.977a2.731,2.731,0,0,0-3.6,0L69.787,255.26a1.289,1.289,0,0,0-.061,1.881h0a1.29,1.29,0,0,0,1.765.055l10.547-9.29a1.365,1.365,0,0,1,1.8,0L94.39,257.2a1.289,1.289,0,1,0,1.7-1.936Z"/>
  </g>
</svg>
