<svg xmlns="http://www.w3.org/2000/svg" width="27.283" height="19.483" viewBox="0 0 27.283 19.483">
  <g id="Group_130" data-name="Group 130" transform="translate(-770.807 -228.618)">
    <path id="Path_133" data-name="Path 133" d="M773.547,228.618h21.838c.015,0,.032.007.049.009.146.022.294.031.437.067a2.868,2.868,0,0,1,2.121,1.954,1.368,1.368,0,0,1,.093.437q.008,7.039,0,14.079a3.271,3.271,0,0,1-.027.408,2.849,2.849,0,0,1-.877,1.721,2.8,2.8,0,0,1-1.98.808q-4.559,0-9.117-.006l-4.36,0-8.111,0a2.161,2.161,0,0,1-.3-.023,2.874,2.874,0,0,1-1.591-.762,2.841,2.841,0,0,1-.875-1.619c-.019-.106-.03-.214-.045-.321V241.5c0-.024.005-.048.005-.073v-8.857c0-.032,0-.064-.005-.1v-1.114c.013-.1.023-.2.039-.3a2.923,2.923,0,0,1,2.381-2.4C773.332,228.644,773.439,228.632,773.547,228.618Zm21.756,1.56-.018-.021H773.7c-.006.009-.014.015-.019.023a.2.2,0,0,1,.054.029q.9.894,1.795,1.79l8.6,8.589a.545.545,0,0,0,.076.068.494.494,0,0,0,.666-.073q5.182-5.187,10.368-10.369A.284.284,0,0,1,795.3,230.178Zm-20.176,16.457h18.582q-3.2-3.2-6.412-6.413c-.012.014-.027.034-.043.052q-1.194,1.194-2.389,2.387a.482.482,0,0,1-.728,0q-1.238-1.246-2.477-2.492l-.037-.035Zm13.225-7.449a.172.172,0,0,0,.023.024q3.652,3.66,7.3,7.318a.073.073,0,0,0,.088.021,1.117,1.117,0,0,0,.755-.735,2.433,2.433,0,0,0,.106-.8V230.991c0-.013,0-.027,0-.04a.223.223,0,0,0-.008-.038Zm-15.917-8.213v.069q0,7.158,0,14.316a2.208,2.208,0,0,0,.033.379.953.953,0,0,0,.609.791.079.079,0,0,0,.1-.022q3.675-3.678,7.355-7.356c.015-.014.028-.028.036-.037Z" fill="#231f20" fill-rule="evenodd"/>
  </g>
</svg>
