<svg xmlns="http://www.w3.org/2000/svg" width="13.508" height="9.016" viewBox="0 0 13.508 9.016">
  <path id="Path_31" data-name="Path 31" d="M271.664,179.577c-.208-.285-.383-.6-.617-.859a7.591,7.591,0,0,0-8.033-2.315,6.438,6.438,0,0,0-4.147,3.057,1.911,1.911,0,0,0,.049,2.207,7.4,7.4,0,0,0,6.7,3.445c.257-.019.515-.032.773-.058.162-.016.323-.043.483-.073a6.8,6.8,0,0,0,4.807-3.171A1.848,1.848,0,0,0,271.664,179.577Zm-6.366,3.694a2.661,2.661,0,1,1,2.67-2.625A2.672,2.672,0,0,1,265.3,183.271Z" transform="translate(-258.54 -176.097)" fill="#fff" fill-rule="evenodd"/>
</svg>
