<svg xmlns="http://www.w3.org/2000/svg" width="21.668" height="14.458" viewBox="0 0 21.668 14.458">
  <path id="Path_198" data-name="Path 198" d="M950.715,281.509c-.331-.457-.613-.956-.987-1.376-3.514-3.939-7.9-4.938-12.888-3.708a10.287,10.287,0,0,0-6.651,4.9,3.054,3.054,0,0,0,.079,3.537,11.859,11.859,0,0,0,10.751,5.526c.411-.03.826-.052,1.238-.094.261-.025.518-.07.777-.111a10.91,10.91,0,0,0,7.708-5.091A2.961,2.961,0,0,0,950.715,281.509Zm-10.208,5.927a4.268,4.268,0,1,1,4.28-4.213A4.288,4.288,0,0,1,940.507,287.436Z" transform="translate(-929.663 -275.93)" fill="#585959" fill-rule="evenodd"/>
</svg>
