<svg xmlns="http://www.w3.org/2000/svg" width="38.878" height="38.881" viewBox="0 0 38.878 38.881">
  <g id="Group_102" data-name="Group 102" transform="translate(-515.15 -371.795)">
    <path id="Path_92" data-name="Path 92" d="M554.028,391.213a19.407,19.407,0,0,1-17.759,19.365,9.294,9.294,0,0,1-1.647.1,18.861,18.861,0,0,1-4.228-.455,19.442,19.442,0,1,1,23.634-19.008Z"/>
    <g id="Group_101" data-name="Group 101">
      <path id="Path_93" data-name="Path 93" d="M536.822,387.152a2.261,2.261,0,0,1,1.759-.607,10.192,10.192,0,0,1,2.653.363l.762-4.076a14.152,14.152,0,0,0-4.822-.707,7.879,7.879,0,0,0-4.011.859A4.537,4.537,0,0,0,531,385.2a10.452,10.452,0,0,0-.609,4.1v1.613h-3.2v4.666h3.2v14.641a18.861,18.861,0,0,0,4.228.455,9.294,9.294,0,0,0,1.647-.1v-15h4.259v-4.666h-4.259V389.4A3.127,3.127,0,0,1,536.822,387.152Z" fill="#fff"/>
    </g>
  </g>
</svg>
