<svg xmlns="http://www.w3.org/2000/svg" xmlns:xlink="http://www.w3.org/1999/xlink" width="29.751" height="29.752" viewBox="0 0 29.751 29.752">
  <defs>
    <linearGradient id="linear-gradient" x1="0.377" y1="-0.335" x2="0.585" y2="1.078" gradientUnits="objectBoundingBox">
      <stop offset="0" stop-color="#0e3189"/>
      <stop offset="0.941" stop-color="#001042"/>
    </linearGradient>
  </defs>
  <g id="Group_126" data-name="Group 126" transform="translate(-582.313 -174.97)">
    <path id="Path_124" data-name="Path 124" d="M612.064,189.83a14.849,14.849,0,0,1-13.587,14.817,7.163,7.163,0,0,1-1.264.075,14.574,14.574,0,0,1-3.233-.346,14.878,14.878,0,1,1,18.084-14.546Z" fill="url(#linear-gradient)"/>
    <g id="Group_125" data-name="Group 125">
      <path id="Path_125" data-name="Path 125" d="M598.9,186.723a1.736,1.736,0,0,1,1.346-.465,7.7,7.7,0,0,1,2.029.278l.583-3.12a10.862,10.862,0,0,0-3.688-.541,6.018,6.018,0,0,0-3.07.658,3.482,3.482,0,0,0-1.653,1.692,8.01,8.01,0,0,0-.465,3.141V189.6h-2.453v3.571h2.453v11.205a14.574,14.574,0,0,0,3.233.346,7.163,7.163,0,0,0,1.264-.075V193.171h3.257V189.6h-3.257v-1.158A2.392,2.392,0,0,1,598.9,186.723Z" fill="#fff"/>
    </g>
  </g>
</svg>
