<svg xmlns="http://www.w3.org/2000/svg" width="73.139" height="73.135" viewBox="0 0 73.139 73.135">
  <g id="Group_7" data-name="Group 7" transform="translate(-631.717 -1259.967)">
    <path id="Rectangle_3" data-name="Rectangle 3" d="M12.5,0H60.639a12.5,12.5,0,0,1,12.5,12.5V60.637a12.5,12.5,0,0,1-12.5,12.5H12.5A12.5,12.5,0,0,1,0,60.637V12.5A12.5,12.5,0,0,1,12.5,0Z" transform="translate(631.717 1259.967)" fill="#395398"/>
    <path id="Path_14" data-name="Path 14" d="M681.9,1333.1v-28.075h9.426l1.41-10.945H681.9v-6.988c0-3.17.879-5.326,5.424-5.326l5.791,0v-9.787a77.482,77.482,0,0,0-8.441-.43c-8.356,0-14.076,5.1-14.076,14.463v8.072H661.15v10.945H670.6V1333.1Z" fill="#fff"/>
  </g>
</svg>
