<svg xmlns="http://www.w3.org/2000/svg" width="27.34" height="27.876" viewBox="0 0 27.34 27.876">
  <g id="Group_128" data-name="Group 128" transform="translate(-770.519 -175.908)">
    <path id="Path_128" data-name="Path 128" d="M785.379,175.908a1.124,1.124,0,0,0,.368.049,13.337,13.337,0,0,1,7.959,3.506c.068.063.056.092,0,.148q-1.913,1.91-3.823,3.826c-.085.086-.122.04-.181-.015a7.311,7.311,0,0,0-3.43-1.8,7.929,7.929,0,0,0-5.925.944,8.371,8.371,0,0,0-3.678,4.505c-.013.033-.028.066-.039.1a.358.358,0,0,1-.069-.041l-1.923-1.493q-1.314-1.02-2.632-2.039c.007-.019.014-.035.019-.05a13.958,13.958,0,0,1,11.308-7.592,1.4,1.4,0,0,0,.412-.045Z" fill="#e94335" fill-rule="evenodd"/>
    <path id="Path_129" data-name="Path 129" d="M776.629,192.526c.14.344.265.693.431,1.024a8.359,8.359,0,0,0,4.736,4.257,7.758,7.758,0,0,0,2.966.455,8.657,8.657,0,0,0,3.673-.873c.266-.135.519-.3.774-.451.319.249.635.5.954.743l3.525,2.731c-.029.028-.053.06-.084.086a12.2,12.2,0,0,1-3.612,2.257,14.2,14.2,0,0,1-4.285.983,1.249,1.249,0,0,0-.411.046h-1.607c-.023-.04-.064-.023-.1-.025a13.963,13.963,0,0,1-9.755-4.883,13,13,0,0,1-1.832-2.774q1.278-.99,2.556-1.981Q775.6,193.324,776.629,192.526Z" fill="#34a753" fill-rule="evenodd"/>
    <path id="Path_130" data-name="Path 130" d="M797.859,190.567h-.022v-.79h.022Z" fill="#fefefe" fill-rule="evenodd"/>
    <path id="Path_131" data-name="Path 131" d="M797.837,189.777v.79a17.479,17.479,0,0,1-.169,2.007,13.058,13.058,0,0,1-3.917,7.786c-.021.018-.044.035-.063.052l-3.525-2.731c-.319-.245-.635-.494-.954-.743.234-.178.476-.349.7-.546a6.446,6.446,0,0,0,2.053-3.556c.027-.134-.016-.139-.123-.139q-3.6,0-7.193,0c-.219,0-.188.028-.188-.188,0-1.676,0-3.351,0-5.03,0-.125.037-.152.157-.152q6.42,0,12.835,0c.114,0,.16.015.183.146A18.316,18.316,0,0,1,797.837,189.777Z" fill="#4285f3" fill-rule="evenodd"/>
    <path id="Path_132" data-name="Path 132" d="M772.005,196.1a13.31,13.31,0,0,1-.984-2.544,13.953,13.953,0,0,1,.956-9.919.359.359,0,0,1,.028-.044q1.317,1.017,2.632,2.039l1.923,1.493a.358.358,0,0,0,.069.041,9.73,9.73,0,0,0-.36,1.561,8.476,8.476,0,0,0,.075,2.706,10.279,10.279,0,0,0,.285,1.091q-1.035.8-2.068,1.6Q773.286,195.111,772.005,196.1Z" fill="#fabb04" fill-rule="evenodd"/>
  </g>
</svg>
