<svg xmlns="http://www.w3.org/2000/svg" width="47" height="45" viewBox="0 0 47 45">
  <g id="Group_1" data-name="Group 1" transform="translate(-200 -63)">
    <path id="Path_2" data-name="Path 2" d="M247,68.458c0,2.758-1.338,5.542-3.752,5.542H204.586C202.173,74,200,71.216,200,68.458v-.169c0-2.758,2.173-5.289,4.586-5.289h38.662c2.414,0,3.752,2.531,3.752,5.289Z"/>
    <path id="Path_3" data-name="Path 3" d="M247,85.387c0,2.758-1.338,5.613-3.752,5.613H204.586C202.173,91,200,88.145,200,85.387v-.169C200,82.46,202.173,80,204.586,80h38.662c2.414,0,3.752,2.46,3.752,5.218Z"/>
    <path id="Path_4" data-name="Path 4" d="M247,102.316c0,2.758-1.338,5.684-3.752,5.684H204.586c-2.413,0-4.586-2.926-4.586-5.684v-.169c0-2.758,2.173-5.147,4.586-5.147h38.662c2.414,0,3.752,2.389,3.752,5.147Z"/>
  </g>
</svg>
