<svg xmlns="http://www.w3.org/2000/svg" width="27.777" height="27.777" viewBox="0 0 27.777 27.777">
  <path id="Path_136" data-name="Path 136" d="M720.215,99.37l-7.051-7.958a2.321,2.321,0,0,0-1.131-.705l-1.224-.338-1.356-1.989a9.053,9.053,0,1,0-2.555,2.555l1.988,1.357.337,1.224a2.355,2.355,0,0,0,.7,1.132l7.959,7.05a1.634,1.634,0,0,0,2.239-.067l.01-.011.012-.012A1.632,1.632,0,0,0,720.215,99.37Zm-23.2-11.1a6.915,6.915,0,1,1,9.779,0A6.914,6.914,0,0,1,697.012,88.274Z" transform="translate(-692.849 -74.333)" fill="#fff"/>
</svg>
