<svg xmlns="http://www.w3.org/2000/svg" width="38.878" height="38.879" viewBox="0 0 38.878 38.879">
  <g id="Group_104" data-name="Group 104" transform="translate(-515.15 -429.023)">
    <path id="Path_94" data-name="Path 94" d="M554.028,448.463a19.439,19.439,0,1,1-19.443-19.44A19.44,19.44,0,0,1,554.028,448.463Z"/>
    <g id="Group_103" data-name="Group 103">
      <path id="Path_95" data-name="Path 95" d="M542.319,437.979H526.864a2.493,2.493,0,0,0-2.789,2.808v15.43a2.467,2.467,0,0,0,2.7,2.752h15.547a2.5,2.5,0,0,0,2.783-2.779V440.73A2.491,2.491,0,0,0,542.319,437.979Zm-1.7,2.371c2.085,0,2.085,0,2.085,2.084,0,2.041,0,2.041-2.049,2.041-2.068,0-2.068,0-2.068-2.069S538.587,440.35,540.619,440.35ZM534.6,444.4a4.063,4.063,0,1,1-4.094,4.024A4.152,4.152,0,0,1,534.6,444.4Zm8.1,10.924c-.02.983-.273,1.262-1.252,1.262H527.713c-.955,0-1.23-.279-1.23-1.262,0-2.523.009-5.1-.035-7.652,0-.717.2-.887.873-.859.959.07.973.031.867.966a6.437,6.437,0,1,0,12.722-.5c-.074-.369.018-.437.342-.437,1.452-.106,1.452-.131,1.452,1.361Z" fill="#fbfbfb" fill-rule="evenodd"/>
    </g>
  </g>
</svg>
