<svg xmlns="http://www.w3.org/2000/svg" xmlns:xlink="http://www.w3.org/1999/xlink" width="38.639" height="26.87" viewBox="0 0 38.639 26.87">
  <defs>
    <linearGradient id="linear-gradient" x1="-1.73" y1="4.518" x2="-0.73" y2="4.518" gradientUnits="objectBoundingBox">
      <stop offset="0.005" stop-color="#b12c25"/>
      <stop offset="1" stop-color="#e0472d"/>
    </linearGradient>
  </defs>
  <g id="Group_19" data-name="Group 19" transform="translate(-207.454 -166.682)">
    <g id="Group_18" data-name="Group 18">
      <path id="Path_32" data-name="Path 32" d="M212.685,193.521a5.243,5.243,0,0,1-5.231-5.244l.018-16.366a5.243,5.243,0,0,1,5.242-5.229l28.148.032a5.242,5.242,0,0,1,5.231,5.242l-.018,16.365a5.243,5.243,0,0,1-5.244,5.231Z" fill="#d1d3d4"/>
      <g id="Group_17" data-name="Group 17">
        <path id="Path_33" data-name="Path 33" d="M244.111,188.319a3.275,3.275,0,0,1-3.277,3.27l-28.147-.033a3.274,3.274,0,0,1-3.271-3.278l.02-16.363a3.271,3.271,0,0,1,3.277-3.269l28.147.032a3.271,3.271,0,0,1,3.269,3.277Z" fill="#e0472d"/>
        <path id="Path_34" data-name="Path 34" d="M244.111,188.319l.306-14.505C238.89,179.226,227,187.165,210,188.026v.252a3.038,3.038,0,0,0,2.977,3.278l28,.033A3.154,3.154,0,0,0,244.111,188.319Z" fill="url(#linear-gradient)"/>
      </g>
    </g>
    <text id="LIVE" transform="translate(226.854 184.801)" fill="#fff" font-size="13.765" font-family="MyriadPro-Bold, Myriad Pro" font-weight="700"><tspan x="-13.531" y="0">LIVE</tspan></text>
  </g>
</svg>
