<svg xmlns="http://www.w3.org/2000/svg" width="100" height="42.665" viewBox="0 0 100 42.665">
  <g id="Group_232" data-name="Group 232" transform="translate(-32.94 -325.335)">
    <text id="LIVESTREAM_LISTING" data-name="LIVESTREAM LISTING" transform="translate(82.94 364)" font-size="10" font-family="Poppins-SemiBold, Poppins" font-weight="600"><tspan x="-49.48" y="0">LIVESTREAM LISTING</tspan></text>
    <path id="Path_244" data-name="Path 244" d="M82.923,349.7H70.815a2.641,2.641,0,0,1-2.756-2.87c0-6.193.019-12.387-.013-18.58a2.779,2.779,0,0,1,2.8-2.917c8.082.028,16.164.014,24.246.014a2.637,2.637,0,0,1,2.741,2.854q0,9.321,0,18.643a2.641,2.641,0,0,1-2.741,2.856ZM69.369,330.77v13.5H96.523v-13.5Zm12.9-1.379v-2.665H76.483v2.665Zm1.351-2.677v2.677H89.4v-2.677Zm-1.343,18.948H76.488v2.663h5.791Zm1.333,2.669H89.4v-2.665H83.612Zm-8.454-18.936v-2.68c-1.572,0-3.126-.024-4.678.014a1.168,1.168,0,0,0-1.1,1.086,15.384,15.384,0,0,0-.011,1.58Zm21.385,0v-1.174a1.349,1.349,0,0,0-1.464-1.525q-2.016,0-4.031,0h-.31v2.7ZM69.349,345.656v1.171a1.35,1.35,0,0,0,1.464,1.526q2.014,0,4.03,0h.312v-2.7Zm27.191.008h-5.8v2.675c1.563,0,3.107.026,4.65-.013a1.236,1.236,0,0,0,1.149-1.218C96.559,346.635,96.54,346.161,96.54,345.664Z" fill-rule="evenodd"/>
    <path id="Path_245" data-name="Path 245" d="M79.285,337.5c0-1.419,0-2.837,0-4.254a1.03,1.03,0,0,1,.464-1,.9.9,0,0,1,1.015.144q3.342,2.193,6.694,4.369a.888.888,0,0,1-.053,1.566c-1.83,1.2-3.665,2.394-5.5,3.592-.4.26-.8.509-1.193.784a.832.832,0,0,1-.978.1.973.973,0,0,1-.449-.924Q79.288,339.686,79.285,337.5Z" fill-rule="evenodd"/>
  </g>
</svg>
