<svg xmlns="http://www.w3.org/2000/svg" width="42" height="43.831" viewBox="0 0 42 43.831">
  <g id="Group_235" data-name="Group 235" transform="translate(-61.94 -804)">
    <text id="LOGOUT" transform="translate(82.94 843.831)" font-size="10" font-family="Poppins-SemiBold, Poppins" font-weight="600"><tspan x="-20.355" y="0">LOGOUT</tspan></text>
    <path id="Path_251" data-name="Path 251" d="M73.2,821.828c.667.6,1.238,1.084,1.776,1.61a.837.837,0,0,1,.147.537c.016.907.01,1.814.012,2.722,0,.943.343,1.3,1.239,1.3H89.526c.81,0,1.212-.371,1.212-1.145q0-9.765,0-19.528c0-.981-.334-1.324-1.278-1.324q-6.519,0-13.038,0c-.965,0-1.271.318-1.283,1.312-.011.908.013,1.816-.02,2.722a1.053,1.053,0,0,1-.275.649c-.489.492-1.019.937-1.644,1.5v-3.894c0-.392,0-.788,0-1.183a2.907,2.907,0,0,1,2.961-3.086q6.807-.035,13.614,0a2.93,2.93,0,0,1,2.9,3.209c.01,3.294,0,6.589,0,9.883q0,4.764,0,9.53A3.012,3.012,0,0,1,89.435,830q-6.519.008-13.037,0a2.966,2.966,0,0,1-3.2-3.27C73.19,825.147,73.2,823.57,73.2,821.828Z" fill-rule="evenodd"/>
    <path id="Path_252" data-name="Path 252" d="M83.659,814.017h4.787c.346,0,.692-.008,1.037,0a.954.954,0,0,1,.994.993c.018,1.32.021,2.64,0,3.961a.967.967,0,0,1-1.1,1c-1.536.006-3.073,0-4.609,0h-1.1c0,.8,0,1.536,0,2.276a3.4,3.4,0,0,1-.028.59c-.137.73-.65.908-1.205.417q-2.7-2.4-5.4-4.8c-.534-.474-1.064-.949-1.643-1.465,1.01-.9,1.975-1.767,2.944-2.625,1.335-1.187,2.666-2.383,4.02-3.546.205-.175.617-.359.777-.265a1.2,1.2,0,0,1,.507.82C83.7,812.221,83.659,813.071,83.659,814.017Z" fill-rule="evenodd"/>
  </g>
</svg>
