<svg xmlns="http://www.w3.org/2000/svg" width="78" height="46.348" viewBox="0 0 78 46.348">
  <g id="Group_224" data-name="Group 224" transform="translate(-43.94 -401.652)">
    <text id="MERCHANT_LIST" data-name="MERCHANT LIST" transform="translate(82.94 444)" font-size="10" font-family="Poppins-SemiBold, Poppins" font-weight="600"><tspan x="-38.73" y="0">MERCHANT LIST</tspan></text>
    <g id="Group_223" data-name="Group 223">
      <path id="Path_233" data-name="Path 233" d="M95.722,424.553a7.831,7.831,0,0,0-6.946-7.571,1.391,1.391,0,0,1-1.081-.663,6.126,6.126,0,0,0-3.294-2.461,1.565,1.565,0,0,0-1.033.055,8.692,8.692,0,0,1-7.6.01,1.512,1.512,0,0,0-1.031-.071,6.3,6.3,0,0,0-4.469,5.422,30.044,30.044,0,0,0-.093,4.017,1.46,1.46,0,0,0,1.519,1.592c.94.024,1.882.117,2.824.117h5.438a2.572,2.572,0,0,1,.064.542,7.818,7.818,0,0,0,9.707,6.921A7.935,7.935,0,0,0,95.722,424.553Zm-7.851,6.291a6.044,6.044,0,1,1,6.042-6.045A6.066,6.066,0,0,1,87.871,430.844Z" fill-rule="evenodd"/>
      <path id="Path_234" data-name="Path 234" d="M79.556,413.792a6.07,6.07,0,1,0,0-12.14,6.07,6.07,0,0,0,0,12.14Z" fill-rule="evenodd"/>
      <path id="Path_235" data-name="Path 235" d="M89.389,424.689c-.345-.171-.715-.293-1.063-.458a5.912,5.912,0,0,1-.978-.524.641.641,0,0,1,.04-1.075,1.7,1.7,0,0,1,.721-.247,2.158,2.158,0,0,1,1.521.518c.168.124.248.108.35-.073.121-.215.231-.436.361-.644a.2.2,0,0,0-.065-.321,4.984,4.984,0,0,0-.7-.423,8.853,8.853,0,0,0-.9-.282c0-.251.007-.57,0-.844,0-.09-.053-.316-.082-.316H87.7a.856.856,0,0,0-.079.339c-.011.279,0,.58,0,.835-.231.081-.437.144-.626.233a1.956,1.956,0,0,0-1.23,1.6,1.751,1.751,0,0,0,.942,1.817c.462.262.965.453,1.446.681a4.916,4.916,0,0,1,.781.411.692.692,0,0,1-.026,1.173,1.474,1.474,0,0,1-.665.226,2.416,2.416,0,0,1-1.714-.643c-.188-.155-.235-.152-.387.045s-.273.377-.424.553c-.129.15-.107.276.042.372a12.306,12.306,0,0,0,1.076.65,4.859,4.859,0,0,0,.785.245c0,.259-.008.716,0,.976A2.055,2.055,0,0,0,87.7,430h.888a1.788,1.788,0,0,0,.082-.467c.011-.272,0-.644,0-.918.119-.032.221-.107.322-.135a2.16,2.16,0,0,0,1.576-1.884A1.846,1.846,0,0,0,89.389,424.689Z" fill="#666" fill-rule="evenodd"/>
    </g>
  </g>
</svg>
