<svg xmlns="http://www.w3.org/2000/svg" width="92" height="55.003" viewBox="0 0 92 55.003">
  <g id="Group_19" data-name="Group 19" transform="translate(-37.375 -490.44)">
    <text id="NOTIFICATIONS" transform="translate(83.375 541.443)" font-size="12" font-family="Poppins-SemiBold, Poppins" font-weight="600"><tspan x="-45.906" y="0">NOTIFICATIONS</tspan></text>
    <path id="Path_42" data-name="Path 42" d="M93.257,511.924c-2.187,0-2.257-3.826-2.257-4.852V501.94a8.048,8.048,0,0,0-6.9-8.181c.129.018.44.032.567.055a2.1,2.1,0,0,0,.593-1.33,2.057,2.057,0,1,0-3.6,1.33c.124-.023-.145-.037-.021-.052-4.081.58-7.642,4.031-7.642,8.178v5.132c0,1.026.694,4.852-1.494,4.852a1.954,1.954,0,0,0-2.134,2.039A2.306,2.306,0,0,0,72.9,516H80.56c-.165,2-.257,1-.257,1.424a3.028,3.028,0,0,0,2.959,3.011,3.083,3.083,0,0,0,2.957-3.073c0-.42-.092.638-.256-1.362h7.654a1.971,1.971,0,0,0,2.155-2.037A2.29,2.29,0,0,0,93.257,511.924Zm-10-18.259c.276,0,.549.015.821.042-.272-.027-.545-.042-.821-.042s-.553.015-.824.042C82.708,493.68,82.983,493.665,83.262,493.665Z"/>
  </g>
</svg>
