<svg xmlns="http://www.w3.org/2000/svg" width="20.38" height="27.522" viewBox="0 0 20.38 27.522">
  <g id="Group_3" data-name="Group 3" transform="translate(-917.435 -420.411)">
    <g id="Group_2" data-name="Group 2">
      <path id="Path_8" data-name="Path 8" d="M934.893,434.946H920.358v-8.091a6.452,6.452,0,0,1,6.444-6.444h1.648a6.452,6.452,0,0,1,6.443,6.444Zm-13.342-1.192H933.7v-6.9a5.256,5.256,0,0,0-5.25-5.25H926.8a5.256,5.256,0,0,0-5.251,5.25Z" fill="#e0472d"/>
    </g>
    <path id="Path_9" data-name="Path 9" d="M933.044,431.264H922.206a4.786,4.786,0,0,0-4.771,4.772v7.124a4.786,4.786,0,0,0,4.771,4.773h10.838a4.786,4.786,0,0,0,4.771-4.773v-7.124A4.785,4.785,0,0,0,933.044,431.264Zm-3.709,7.9v4.514a1.734,1.734,0,0,1-3.467,0v-4.514a2.469,2.469,0,1,1,3.467,0Z" fill="#e0472d"/>
  </g>
</svg>
