<svg xmlns="http://www.w3.org/2000/svg" width="177.813" height="77.431" viewBox="0 0 177.813 77.431">
  <g id="Group_1" data-name="Group 1" transform="translate(-1008.957 -142.958)">
    <path id="Path_2" data-name="Path 2" d="M1035.195,145.2a29.613,29.613,0,0,0-11.871,2.5,27.252,27.252,0,0,0-9.6,6.834c-2.272,2.59-3.136,5.428-4.077,8.434-.938,2.981-.646,6.841-.646,11.469V218h22V172.248c0-4.933,1.909-5.5,3.755-5.5,2.9,0,3.977.8,3.977,3.42,0,1.825-.873,3.835-6.037,3.835H1032v20.755l3.9.061c8.264,0,14.56-2.077,18.691-6.175,4.517-4.445,6.815-10.312,6.815-17.437a25.14,25.14,0,0,0-7.557-18.529A25.593,25.593,0,0,0,1035.195,145.2Z" fill="#e0472d"/>
    <rect id="Rectangle_2" data-name="Rectangle 2" width="22" height="53" transform="translate(1068 165)" fill="#e0472d"/>
    <path id="Path_3" data-name="Path 3" d="M1077.852,142.958a10.2,10.2,0,0,0-7.3,2.967,9.854,9.854,0,0,0-.155,14.184,11.366,11.366,0,0,0,14.9,0,9.861,9.861,0,0,0-.152-14.183A10.207,10.207,0,0,0,1077.852,142.958Z" fill="#e0472d"/>
    <path id="Path_4" data-name="Path 4" d="M1118.785,196.187c-1.131-1.357-1.734-6.187-1.8-7.187H1128V165h-10V145h-21v45.267c0,7.49,1.149,13.6,4.194,18.171a25.4,25.4,0,0,0,9.441,8.543,26.831,26.831,0,0,0,12.675,3.147c.492,0,2.148-.018,3.166-.053l1.524-.02V198h-2.551C1122.2,198,1119.955,197.587,1118.785,196.187Z" fill="#e0472d"/>
    <path id="Path_5" data-name="Path 5" d="M1178.69,173.173a26.461,26.461,0,0,0-19.385-8.133,28.056,28.056,0,0,0-20.24,7.968,27.552,27.552,0,0,0,0,39.251,28.115,28.115,0,0,0,39.523.027,27.582,27.582,0,0,0,.1-39.113Zm-24.758,14.443a6.781,6.781,0,0,1,9.753,0,7.414,7.414,0,0,1-.027,10.172,6.66,6.66,0,0,1-9.7,0,7.419,7.419,0,0,1-.027-10.172Z" fill="#e0472d"/>
  </g>
</svg>
