<svg xmlns="http://www.w3.org/2000/svg" width="60.851" height="26.499" viewBox="0 0 60.851 26.499">
  <g id="Group_15" data-name="Group 15" transform="translate(-1008.957 -94.496)">
    <path id="Path_2" data-name="Path 2" d="M1017.936,96.736a10.135,10.135,0,0,0-4.062.856,9.327,9.327,0,0,0-3.286,2.339,7.346,7.346,0,0,0-1.4,2.886,14.539,14.539,0,0,0-.221,3.925v15.067h7.529V105.993c0-1.688.653-1.883,1.285-1.883.993,0,1.361.354,1.361,1.249,0,.625-.3,1.391-2.066,1.391h-.238V113.7l1.334.021c2.828,0,4.983-.711,6.4-2.114a8.039,8.039,0,0,0,2.332-5.967,8.6,8.6,0,0,0-2.586-6.341A8.76,8.76,0,0,0,1017.936,96.736Z" transform="translate(0 -1.473)" fill="#e0472d"/>
    <rect id="Rectangle_2" data-name="Rectangle 2" width="8" height="18" transform="translate(1029 102)" fill="#e0472d"/>
    <path id="Path_3" data-name="Path 3" d="M1071.02,94.5a3.49,3.49,0,0,0-2.5,1.015,3.373,3.373,0,0,0-.053,4.854,3.891,3.891,0,0,0,5.1,0,3.375,3.375,0,0,0-.052-4.854A3.493,3.493,0,0,0,1071.02,94.5Z" transform="translate(-38.485)" fill="#e0472d"/>
    <path id="Path_4" data-name="Path 4" d="M1104.455,114.517a6.628,6.628,0,0,1-.615-2.46h3.769v-8.213h-3.422V97H1097v15.333a11.1,11.1,0,0,0,1.435,6.219,8.693,8.693,0,0,0,3.231,2.924,9.182,9.182,0,0,0,4.338,1.077c.168,0,.735-.006,1.083-.018l.522-.007v-7.39h-.873C1105.623,115.138,1104.856,115,1104.455,114.517Z" transform="translate(-57.913 -1.647)" fill="#e0472d"/>
    <path id="Path_5" data-name="Path 5" d="M1147.222,119.361a9.056,9.056,0,0,0-6.634-2.783,9.6,9.6,0,0,0-6.927,2.727,9.429,9.429,0,0,0,0,13.433,9.622,9.622,0,0,0,13.526.009,9.439,9.439,0,0,0,.036-13.385Zm-8.473,4.943a2.321,2.321,0,0,1,3.338,0,2.537,2.537,0,0,1-.009,3.481,2.279,2.279,0,0,1-3.319,0,2.539,2.539,0,0,1-.009-3.481Z" transform="translate(-80.179 -14.525)" fill="#e0472d"/>
  </g>
</svg>


