<svg xmlns="http://www.w3.org/2000/svg" width="81.797" height="80.709" viewBox="0 0 81.797 80.709">
  <g id="Group_53" data-name="Group 53" transform="translate(-989.213 -955.253)">
    <path id="Path_48" data-name="Path 48" d="M1059.963,955.856c.8.377,1.614.7,2.379,1.129a13.14,13.14,0,1,1-15.852,20.661c-.111-.112-.229-.227-.361-.356l-1,.656q-12.847,8.417-25.689,16.822a.5.5,0,0,0-.265.529,12.531,12.531,0,0,1-.2,4.164.484.484,0,0,0,.281.624q13.118,7.125,26.223,14.28c.539.29,1.075.583,1.615.871a13.168,13.168,0,1,1-2.083,4.746c-9.721-4.568-19.46-9.145-29.122-13.688a32.995,32.995,0,0,1-2.593,2.315,14.5,14.5,0,0,1-15.362,1.665,14.814,14.814,0,0,1-8.654-15.066c.031-.336.051-.667.082-1,.178-.747.357-1.488.534-2.231l.49-1.167a15.025,15.025,0,0,1,25.233-3.912c.361.418.692.864,1.044,1.307q13.414-7.613,26.8-15.212c-.03-.106-.051-.191-.076-.272a12.523,12.523,0,0,1,.158-9.054,12.79,12.79,0,0,1,11.327-8.378,24.036,24.036,0,0,1,3.031.076C1058.593,955.525,1059.275,955.7,1059.963,955.856Z" fill="#404041" fill-rule="evenodd"/>
  </g>
</svg>
