<svg xmlns="http://www.w3.org/2000/svg" width="20.097" height="19.83" viewBox="0 0 20.097 19.83">
  <path id="Path_85" data-name="Path 85" d="M1488.254,408.479a3.25,3.25,0,0,0-4.5.788l-.4-.214q-3.219-1.754-6.443-3.508a.119.119,0,0,1-.068-.153,3.09,3.09,0,0,0,.049-1.024.119.119,0,0,1,.065-.129q3.157-2.066,6.312-4.133l.245-.162c.032.033.06.061.088.088a3.178,3.178,0,0,0,2.081.947,3.229,3.229,0,0,0,1.813-6.023c-.188-.1-.388-.185-.585-.277-.168-.039-.336-.082-.5-.121a5.785,5.785,0,0,0-.744-.019,3.142,3.142,0,0,0-2.783,2.058,3.079,3.079,0,0,0-.038,2.224c.006.02.011.041.018.067q-3.291,1.869-6.586,3.737c-.086-.108-.167-.218-.255-.319a3.691,3.691,0,0,0-6.2.961c-.04.093-.079.191-.12.285l-.132.548c-.007.083-.011.165-.02.247a3.638,3.638,0,0,0,2.127,3.7,3.565,3.565,0,0,0,3.774-.408,7.92,7.92,0,0,0,.637-.569l7.154,3.362a3.234,3.234,0,1,0,5.012-1.954Z" transform="translate(-1469.533 -394.531)" fill="#fff" fill-rule="evenodd"/>
</svg>
