<svg xmlns="http://www.w3.org/2000/svg" width="10.119" height="8.907" viewBox="0 0 10.119 8.907">
  <path id="Path_162" data-name="Path 162" d="M1307,633.663l.787-.105c-.023-.2.355-.391.331-.588-.1-.778-.2-1.315-.736-1.637.015-.016.132-.031.145-.049a1.406,1.406,0,0,0,.157-1.775,1.441,1.441,0,0,0-1.7-.5,1.392,1.392,0,0,0-.351.222,1.968,1.968,0,0,0,.031-.285,1.871,1.871,0,0,0-.856-1.576,2.389,2.389,0,0,0-.589-.246c-.081-.025-.162-.051-.239-.078l-.395-.014-.13.035a1.856,1.856,0,0,0-1.49,1.245,1.884,1.884,0,0,0-.089,1.025,1.409,1.409,0,0,0-1.019-.439,1.432,1.432,0,0,0-1.435,1.4,1.466,1.466,0,0,0,.408,1.049,2,2,0,0,0-.913,1.506c-.031.2-.454.406-.478.609l-.435.311v.681l.408.045c.063.283.449.51.729.635a8.336,8.336,0,0,0,.909.295,2.024,2.024,0,0,0,.4.051c.045,0,.115.005.16.011l.23.024.03-.32a.563.563,0,0,1,.015-.094.422.422,0,0,0-.031-.356.45.45,0,0,0-.334-.164,1.349,1.349,0,0,1-.759-.256.141.141,0,0,1-.034-.052c.012-.366.027-.778.078-1.176.1-.758.446-1.082,1.167-1.082.044,0,.09,0,.148,0a.24.24,0,0,0,.085-.018,2.684,2.684,0,0,0-.152.7c-.055.633-.046,1.276-.038,1.9q.006.342.006.682a.406.406,0,0,0,.271.347l.164.049a9.681,9.681,0,0,0,.968.268c.275.056.557-.962.829-.929.116.012.233-1.006.378-1.006h.582l.649.93c.42-.075.84.373,1.261.3.394-.066.387-.129.386-.236-.009-.6-.013-1.063-.017-1.66l0-.775a.51.51,0,0,0-.021-.167,3.308,3.308,0,0,0-.15-.4.8.8,0,0,0,.1.013.916.916,0,0,1,1.123.774,6.08,6.08,0,0,1,.139,1.1l.01.162c.02.316.015.324-.315.432-.06.017-.125.033-.187.044l-.348.065-.326.059.046.96.256-.07c.112-.031.221-.058.329-.086a7.359,7.359,0,0,0,.725-.211c.367-.135-.188-.363-.077-.681l-.787-.034Zm-.059-4.068-.194.213a.348.348,0,0,1,.3.15.5.5,0,0,1,.095.383.562.562,0,0,1-.573.525c-.3-.006-.326-.232-.321-.552,0-.284.1-.506.692-.506v-.213ZM1305,634.177v.8a12.516,12.516,0,0,1-5-.1v-.461c0-.561.955-1.139,1-1.7.047-.678,1.1-1.3,1.838-1.488a4.331,4.331,0,0,1,.675-.053,1.958,1.958,0,0,1,1.909,1.439,3.488,3.488,0,0,1,.082.838c-.005.139-.267.28-.267.418Zm-2.245-5.205a1.02,1.02,0,0,1,.979-1.033,1.047,1.047,0,0,1,.736.31.983.983,0,0,1,.3.7,1.021,1.021,0,0,1-1.019,1.018A1,1,0,0,1,1302.755,628.972Zm-1.7.623-.1.213c.3,0,.482.056.48.339s-.275.362-.562.362h-.013c-.148,0-.292.121-.391.019s-.054-.154-.052-.3c.005-.272.207-.418.635-.418v-.213Zm4.119,1.072a2.974,2.974,0,0,0-.3-.162,1.671,1.671,0,0,0,.264-.24A1.543,1.543,0,0,0,1305.176,630.667Zm-2.839-.449a2.528,2.528,0,0,0,.313.285,3.466,3.466,0,0,0-.436.248,1.465,1.465,0,0,0,.051-.184,1.4,1.4,0,0,0,0-.439C1302.289,630.157,1302.31,630.189,1302.337,630.218Z" transform="translate(-1298 -627.03)" fill="#585959"/>
</svg>
