<svg xmlns="http://www.w3.org/2000/svg" width="24.213" height="21.404" viewBox="0 0 24.213 21.404">
  <g id="Group_113" data-name="Group 113" transform="translate(-1070.231 -269.498)">
    <path id="Path_199" data-name="Path 199" d="M1070.231,280.012a1.24,1.24,0,0,1,1.376-.892c2.183.017,4.367,0,6.547.01.216,0,.432.083.645.1a.4.4,0,0,0,.3-.1,11.329,11.329,0,0,0,1.037-1.312c.75-1.222,1.46-2.465,2.175-3.706a.934.934,0,0,0,.1-.467c-.005-.814,0-1.626-.052-2.436a1.414,1.414,0,0,1,1-1.507,2.579,2.579,0,0,1,2.38.2,1.074,1.074,0,0,1,.4.418,10.375,10.375,0,0,1,1.216,3.747,6.182,6.182,0,0,1-.127,1.334c-.1.7-.224,1.4-.349,2.136h.316l5.082-.01a2.32,2.32,0,0,1,1.272.286,2.008,2.008,0,0,1,.8,2.307,6.842,6.842,0,0,1-.493.979.373.373,0,0,0-.051.243,2.426,2.426,0,0,1-.4,2.446.328.328,0,0,0-.065.26,2.374,2.374,0,0,1-.369,2.384.421.421,0,0,0-.068.416,2.469,2.469,0,0,1-1.939,3.243,6.657,6.657,0,0,1-1.2.108c-2.984.009-5.969,0-8.955.011a3.079,3.079,0,0,1-1.7-.484,3.644,3.644,0,0,0-.517-.219c0,.2,0,.32,0,.442a.988.988,0,0,1-.913.947.318.318,0,0,1-.07.009c-2.134,0-4.269.005-6.405-.005a1.033,1.033,0,0,1-.984-.811Zm15.42-1.461a.482.482,0,0,1,.005-.116c.177-1.014.367-2.027.532-3.047a5.5,5.5,0,0,0,.13-1.352,9.4,9.4,0,0,0-1.047-3.186.375.375,0,0,0-.109-.148,1.581,1.581,0,0,0-1.637.071.458.458,0,0,0-.139.315c.005.875.018,1.747.049,2.622a1.667,1.667,0,0,1-.188.813,37.2,37.2,0,0,1-2.731,4.5,4.906,4.906,0,0,1-1.481,1.4c-.2.119-.378.256-.58.368a.332.332,0,0,0-.182.34q.008,3.513.005,7.021v.265a1.876,1.876,0,0,1,1.417.465.854.854,0,0,0,.269.143,2.3,2.3,0,0,0,.639.154q4.738.008,9.475,0a1.974,1.974,0,0,0,1.168-.32,1.331,1.331,0,0,0,.621-1.224.863.863,0,0,0-.725-.841c-.032-.165.018-.238.176-.283a1.492,1.492,0,0,0,1.12-1.213.97.97,0,0,0-.487-1.062c-.117-.064-.24-.11-.434-.2.119-.1.191-.2.283-.227a1.558,1.558,0,0,0,1.112-1.2.942.942,0,0,0-.446-1.036,4.309,4.309,0,0,0-.411-.2.258.258,0,0,1,.227-.288,1.611,1.611,0,0,0,.519-.263,1.5,1.5,0,0,0,.532-1.6c-.163-.474-.525-.665-1.275-.665h-6.407Zm-8.292,11.329v-9.719h-6.089v9.719Z" fill="#585959" fill-rule="evenodd"/>
  </g>
</svg>
