<svg xmlns="http://www.w3.org/2000/svg" width="82" height="44.278" viewBox="0 0 82 44.278">
  <g id="Group_230" data-name="Group 230" transform="translate(-41.94 -643.723)">
    <text id="TICKET_SUPPORT" data-name="TICKET SUPPORT" transform="translate(82.94 684)" font-size="10" font-family="Poppins-SemiBold, Poppins" font-weight="600"><tspan x="-40.79" y="0">TICKET SUPPORT</tspan></text>
    <g id="Group_229" data-name="Group 229">
      <g id="Group_228" data-name="Group 228">
        <path id="Path_236" data-name="Path 236" d="M97.414,668.666l-1.327-3.98a.879.879,0,0,1,.058-.683,10.379,10.379,0,0,0-5.9-14.581,12.394,12.394,0,0,1,.731,7.033A12.177,12.177,0,0,1,81.2,666.13a12.738,12.738,0,0,1-1.922.185,10.368,10.368,0,0,0,12.324,2.209.887.887,0,0,1,.681-.055l3.995,1.329A.9.9,0,0,0,97.414,668.666Z"/>
        <path id="Path_237" data-name="Path 237" d="M76.977,643.908a10.375,10.375,0,0,0-7.244,14.933.887.887,0,0,1,.059.684l-1.326,3.981A.9.9,0,0,0,69.6,664.64l4-1.333a.88.88,0,0,1,.68.055,10.386,10.386,0,1,0,2.7-19.454Zm1.908,16.936a1.31,1.31,0,1,1,1.31-1.31A1.311,1.311,0,0,1,78.885,660.844Zm1.27-5.742.02.511a1.291,1.291,0,1,1-2.581,0v-.466a2.614,2.614,0,0,1,1.694-2.478,1.2,1.2,0,1,0-1.605-1.132,1.29,1.29,0,1,1-2.58,0,3.79,3.79,0,0,1,3.761-3.78,3.66,3.66,0,0,1,2.682,1.12,3.761,3.761,0,0,1-1.391,6.225Z"/>
      </g>
    </g>
  </g>
</svg>
