<svg xmlns="http://www.w3.org/2000/svg" width="39.837" height="39.837" viewBox="0 0 39.837 39.837">
  <g id="Group_106" data-name="Group 106" transform="translate(-514.671 -487.134)">
    <circle id="Ellipse_1" data-name="Ellipse 1" cx="19.439" cy="19.439" r="19.439" transform="translate(514.671 526.001) rotate(-88.57)"/>
    <g id="Group_105" data-name="Group 105">
      <path id="Path_96" data-name="Path 96" d="M529.7,513.645c.054.052.119.1.177.154.026.049.047.111.118.053l.021.007c-.09.145.037.206.117.276a3.3,3.3,0,0,0,3.707.545,3.237,3.237,0,0,0,1.856-3.092c0-5.008,0-10.018-.011-15.023,0-.36.1-.456.449-.448.793.014,1.583-.012,2.377-.019a.09.09,0,0,1,.051.031,4.9,4.9,0,0,0,1.233,2.607,2.021,2.021,0,0,0,.816.7v0c-.016.072.024.089.086.085h0a.277.277,0,0,0,.228.179c.094.078.186.156.277.234.03.077.073.141.172.108h-.007c-.02.137.1.2.177.262a5.264,5.264,0,0,0,2.364,1.146.112.112,0,0,1,.026.029c0,.879-.026,1.76,0,2.635.008.381-.128.438-.461.416a9.558,9.558,0,0,1-4.633-1.5c-.1-.062-.183-.185-.357-.152v.457c0,2.492.011,4.982-.005,7.475a7.214,7.214,0,0,1-10.4,6.435c-.118-.056-.222-.181-.384-.127l.005,0c0-.1-.059-.1-.131-.092-.186-.156-.372-.31-.557-.467-.007-.066-.04-.1-.106-.1v.006c0-.069-.016-.108-.089-.065l-.014-.013c.069-.157-.067-.233-.135-.328a7.176,7.176,0,0,1,1.21-9.934,6.506,6.506,0,0,1,4.373-1.58v3.033a3.838,3.838,0,0,0-1.653-.07,3.338,3.338,0,0,0-2.622,2.871A3.241,3.241,0,0,0,529.7,513.645Z" fill="#fcfbfc" fill-rule="evenodd"/>
      <path id="Path_97" data-name="Path 97" d="M527.685,517.117c.162-.054.266.071.384.127a7.214,7.214,0,0,0,10.4-6.435c.016-2.493.005-4.983.005-7.475v-.457c.174-.033.259.09.357.152a9.558,9.558,0,0,0,4.633,1.5c.333.022.469-.035.461-.416-.025-.875,0-1.756,0-2.635,1.124.077,1.124.077,1.124,1.2,0,.806-.015,1.611.01,2.422.011.33-.1.4-.415.382a9.441,9.441,0,0,1-4.564-1.425c-.131-.084-.26-.17-.408-.264-.111.142-.06.3-.06.445,0,2.461,0,4.928,0,7.391a7.149,7.149,0,0,1-6.178,7.232,6.934,6.934,0,0,1-5.6-1.552C527.772,517.258,527.685,517.217,527.685,517.117Z" fill="#e0472d" fill-rule="evenodd"/>
      <path id="Path_98" data-name="Path 98" d="M538.511,496.1c-.794.007-1.584.033-2.377.019-.346-.008-.449.088-.449.448.014,5.005.007,10.015.011,15.023a3.237,3.237,0,0,1-1.856,3.092,3.3,3.3,0,0,1-3.707-.545c-.08-.07-.207-.131-.117-.276a4.47,4.47,0,0,0,1.672.176,3.32,3.32,0,0,0,2.868-3.367q.006-6.969,0-13.934c0-.435.007-.877-.006-1.316-.006-.207.072-.266.269-.266q1.7.015,3.4,0c.2,0,.277.063.272.268A5.5,5.5,0,0,0,538.511,496.1Z" fill="#69c7ce" fill-rule="evenodd"/>
      <path id="Path_99" data-name="Path 99" d="M532.241,504.549a6.506,6.506,0,0,0-4.373,1.58,7.176,7.176,0,0,0-1.21,9.934c.068.1.2.171.135.328a6.491,6.491,0,0,1-2.37-3.328,7.231,7.231,0,0,1,6.791-9.526c1-.006,1-.006,1.061.945C532.266,504.5,532.251,504.527,532.241,504.549Z" fill="#69c7ce" fill-rule="evenodd"/>
      <path id="Path_100" data-name="Path 100" d="M532.241,504.549c.01-.022.025-.045.034-.067,1.12.028,1.12.028,1.12,1.133,0,.875-.01,1.756,0,2.631,0,.2,0,.3-.279.246a3.152,3.152,0,0,0-3.442,1.369,3.187,3.187,0,0,0-.036,3.672c.026.037.042.078.062.112a3.241,3.241,0,0,1-1.734-3.262,3.338,3.338,0,0,1,2.622-2.871,3.838,3.838,0,0,1,1.653.07Z" fill="#e0472d" fill-rule="evenodd"/>
      <path id="Path_101" data-name="Path 101" d="M540.611,499.44a2.021,2.021,0,0,1-.816-.7,4.9,4.9,0,0,1-1.233-2.607c.323,0,.708-.109.953.031s.1.565.153.86a5.847,5.847,0,0,0,.811,2.066C540.539,499.191,540.706,499.268,540.611,499.44Z" fill="#e0472d" fill-rule="evenodd"/>
      <path id="Path_102" data-name="Path 102" d="M543.9,501.451a5.264,5.264,0,0,1-2.364-1.146c-.081-.067-.2-.125-.177-.262a7.056,7.056,0,0,0,2.4.582c.132,0,.156.086.152.2C543.917,501.029,543.907,501.242,543.9,501.451Z" fill="#69c7ce" fill-rule="evenodd"/>
      <path id="Path_103" data-name="Path 103" d="M540.92,499.7a.277.277,0,0,1-.228-.179C540.841,499.492,540.859,499.619,540.92,499.7Z" fill="#e0472d" fill-rule="evenodd"/>
      <path id="Path_104" data-name="Path 104" d="M541.369,500.043c-.1.033-.142-.031-.172-.108C541.273,499.941,541.343,499.951,541.369,500.043Z" fill="#69c7ce" fill-rule="evenodd"/>
      <path id="Path_105" data-name="Path 105" d="M540.7,499.523c-.062,0-.1-.013-.086-.085C540.706,499.391,540.71,499.443,540.7,499.523Z" fill="#e0472d" fill-rule="evenodd"/>
      <path id="Path_106" data-name="Path 106" d="M529.995,513.852c-.071.058-.092,0-.118-.053C529.926,513.793,529.973,513.8,529.995,513.852Z" fill="#69c7ce" fill-rule="evenodd"/>
      <path id="Path_107" data-name="Path 107" d="M527.955,512.473c.059-.033.074,0,.073.052A.054.054,0,0,1,527.955,512.473Z" fill="#69c7ce" fill-rule="evenodd"/>
      <path id="Path_108" data-name="Path 108" d="M528.028,512.522c.055-.006.08.027.084.078C528.069,512.592,528.029,512.576,528.028,512.522Z" fill="#69c7ce" fill-rule="evenodd"/>
      <path id="Path_109" data-name="Path 109" d="M528.57,512.982c.054-.007.107,0,.107.071A.089.089,0,0,1,528.57,512.982Z" fill="#e0472d" fill-rule="evenodd"/>
    </g>
  </g>
</svg>
