<svg xmlns="http://www.w3.org/2000/svg" width="50.183" height="40.826" viewBox="0 0 50.183 40.826">
  <g id="Group_28" data-name="Group 28" transform="translate(-263.733 -719.961)">
    <path id="Path_48" data-name="Path 48" d="M286.621,756.516q-9.294,0-18.59,0c-2.81,0-4.292-1.462-4.293-4.256q-.009-14.028,0-28.055c0-2.765,1.467-4.239,4.216-4.24q18.63-.008,37.264,0c2.775,0,4.239,1.456,4.241,4.206q.006,14.068,0,28.138c0,2.732-1.494,4.2-4.248,4.207Q295.916,756.519,286.621,756.516Zm-.089-2.985h18.589c1.232,0,1.42-.183,1.42-1.413q0-13.857,0-27.714c0-1.29-.192-1.483-1.451-1.483H268.083c-1.211,0-1.417.2-1.417,1.427q0,13.9,0,27.8c0,1.19.2,1.384,1.361,1.384Z" fill-rule="evenodd"/>
    <path id="Path_49" data-name="Path 49" d="M268.982,757.255c.927,0,1.714,0,2.5,0,.112,0,.281-.028.328.032.665.855,1.6.538,2.433.54q17.532.026,35.064.011c1.641,0,1.691-.053,1.691-1.729q0-13.433,0-26.867c0-.559.09-1.144-.531-1.495a.48.48,0,0,1-.145-.36c-.013-.841-.006-1.682-.006-2.526a3.579,3.579,0,0,1,3.542,3.354c.023.337.023.676.023,1.013,0,9.042-.062,18.083.036,27.123a4.075,4.075,0,0,1-4.4,4.434c-12.167-.069-24.333-.031-36.5-.034a3.737,3.737,0,0,1-3.821-2.484A9.479,9.479,0,0,1,268.982,757.255Z" fill-rule="evenodd"/>
    <path id="Path_50" data-name="Path 50" d="M286.532,753.531H268.027c-1.166,0-1.361-.194-1.361-1.384q0-13.9,0-27.8c0-1.223.206-1.427,1.417-1.427h37.008c1.259,0,1.45.193,1.451,1.483q0,13.857,0,27.714c0,1.23-.188,1.413-1.42,1.413Zm6.869-23.738-12.293,12.412c-1.246-1.324-2.451-2.6-3.7-3.927-2.46,2.471-4.842,4.864-7.222,7.259-.115.116-.284.263-.286.4-.021,1.475-.013,2.952-.013,4.435h33.395a3.535,3.535,0,0,0,.063-.444c.005-3.237.018-6.475-.015-9.711a1.514,1.514,0,0,0-.462-.916c-1.474-1.512-2.981-2.991-4.473-4.484C296.788,733.2,295.184,731.585,293.4,729.793Zm-14.514.778a4.513,4.513,0,1,0-4.523,4.553A4.435,4.435,0,0,0,278.887,730.571Z" fill="#fff" fill-rule="evenodd"/>
    <path id="Path_51" data-name="Path 51" d="M293.4,729.793c1.783,1.792,3.387,3.409,4.995,5.021,1.492,1.493,3,2.972,4.473,4.484a1.514,1.514,0,0,1,.462.916c.033,3.236.02,6.474.015,9.711a3.535,3.535,0,0,1-.063.444H269.888c0-1.483-.008-2.96.013-4.435,0-.134.171-.281.286-.4,2.38-2.395,4.762-4.788,7.222-7.259,1.248,1.325,2.453,2.6,3.7,3.927Z" fill-rule="evenodd"/>
    <path id="Path_52" data-name="Path 52" d="M278.887,730.571a4.513,4.513,0,1,1-4.506-4.482A4.445,4.445,0,0,1,278.887,730.571Z" fill-rule="evenodd"/>
  </g>
</svg>
