<svg xmlns="http://www.w3.org/2000/svg" width="48" height="45.985" viewBox="0 0 48 45.985">
  <g id="Group_234" data-name="Group 234" transform="translate(-58.94 -482)">
    <g id="Group_233" data-name="Group 233">
      <path id="Path_246" data-name="Path 246" d="M95.722,504.9a7.832,7.832,0,0,0-6.946-7.57,1.387,1.387,0,0,1-1.081-.664A6.146,6.146,0,0,0,84.4,494.2a1.571,1.571,0,0,0-1.033.055,8.689,8.689,0,0,1-7.6.012,1.507,1.507,0,0,0-1.031-.073,6.3,6.3,0,0,0-4.469,5.424,30.022,30.022,0,0,0-.093,4.016c.012.957.552,1.392,1.519,1.418.94.023,1.882-.057,2.824-.057h5.438a5.228,5.228,0,0,1,.064.715,7.867,7.867,0,0,0,15.706-.815Zm-7.851,6.291a6.044,6.044,0,1,1,6.042-6.044A6.064,6.064,0,0,1,87.871,511.191Z" fill-rule="evenodd"/>
      <path id="Path_247" data-name="Path 247" d="M79.556,494.139a6.07,6.07,0,1,0,0-12.139,6.07,6.07,0,0,0,0,12.139Z" fill-rule="evenodd"/>
      <path id="Path_248" data-name="Path 248" d="M91.819,501.922c-.33,0-.659,0-.989,0a.283.283,0,0,0-.307.25c-.043.219-.1.432-.131.651-.019.154-.092.177-.225.175-1.4,0-2.8,0-4.206,0-.342,0-.685,0-1.027,0a.272.272,0,0,0-.293.348c.169.927.34,1.621.512,2.549.058.311.1.107.413.107h3.825c.071,0,.144.231.229.235A7.424,7.424,0,0,1,89.5,507h-4c-.206,0-.329.335-.333.493s.118.507.322.507h4.168c.221,0,.295-.291.34-.508.256-1.224.51-2.566.767-3.793.079-.376.161-.8.242-1.186.281,0,.54-.028.8-.03a.291.291,0,0,0,.322-.283A.3.3,0,0,0,91.819,501.922Zm-6.413,2.607c-.063-.327-.12-.655-.18-1h.736v1.073c-.156,0-.311.006-.467,0A.122.122,0,0,1,85.406,504.529Zm.558,1.4h-.3c-.046-.252-.1-.514-.148-.792h.451Zm1.338,0h-.79v-.793h.79Zm0-1.343h-.794v-1.058h.794Zm.545-1.055h.8v1.06h-.8Zm.8,2.4h-.8v-.795h.8Zm1.075,0h-.533v-.794H89.9C89.84,505.411,89.782,505.672,89.724,505.936Zm.3-1.4a.124.124,0,0,1-.1.063c-.239.006-.478,0-.738,0v-1.072h1.048C90.167,503.876,90.1,504.209,90.026,504.54Z" fill-rule="evenodd"/>
      <path id="Path_249" data-name="Path 249" d="M86.244,507.82a.8.8,0,0,0-.805.791.813.813,0,0,0,.809.81.8.8,0,0,0,.789-.806A.782.782,0,0,0,86.244,507.82Zm0,1.069a.284.284,0,0,1-.273-.286.279.279,0,0,1,.282-.253.267.267,0,0,1,.259.271A.278.278,0,0,1,86.242,508.889Z" fill-rule="evenodd"/>
      <path id="Path_250" data-name="Path 250" d="M89.181,507.82a.782.782,0,0,0-.788.8.8.8,0,0,0,.79.8.809.809,0,0,0,.8-.816A.789.789,0,0,0,89.181,507.82Zm0,1.069a.282.282,0,0,1-.265-.273.275.275,0,0,1,.287-.265.278.278,0,0,1,.257.277A.289.289,0,0,1,89.181,508.889Z" fill-rule="evenodd"/>
    </g>
    <text id="USER_LIST" data-name="USER LIST" transform="translate(82.94 523.985)" font-size="10" font-family="Poppins-SemiBold, Poppins" font-weight="600"><tspan x="-23.2" y="0">USER LIST</tspan></text>
  </g>
</svg>
